<svg xmlns="http://www.w3.org/2000/svg" viewBox="0 0 200 120" width="100%" height="100%">
  <defs>
    <linearGradient id="drip-grad" x1="0%" y1="0%" x2="0%" y2="100%">
      <stop offset="0%" stop-color="#FF5E00" />
      <stop offset="60%" stop-color="#FF9E00" />
      <stop offset="100%" stop-color="#FFD300" />
    </linearGradient>
    <filter id="liquid-glow" x="-10%" y="-10%" width="120%" height="120%">
      <feDropShadow dx="2" dy="2" stdDeviation="0" flood-color="#1A1D10" />
    </filter>
  </defs>
  <path 
    d="M 0,0 
       L 200,0 
       C 200,12 185,15 175,15 
       C 165,15 160,35 160,55 
       C 160,70 150,82 142,82 
       C 134,82 125,70 125,55 
       C 125,30 115,20 105,20 
       C 95,20 90,45 90,75 
       C 90,95 78,110 68,110 
       C 58,110 46,95 46,75 
       C 46,40 40,25 32,25 
       C 24,25 20,35 20,45 
       C 20,55 12,65 6,65 
       C 2,65 0,55 0,55 
       Z" 
    fill="url(#drip-grad)" 
    stroke="#1A1D10" 
    stroke-width="3" 
    filter="url(#liquid-glow)"
  />
  <!-- Separate floating droplet 1 -->
  <circle cx="15" cy="85" r="7" fill="#FF9E00" stroke="#1A1D10" stroke-width="3" filter="url(#liquid-glow)" />
  <!-- Separate floating droplet 2 -->
  <circle cx="120" cy="100" r="9" fill="#FF9E00" stroke="#1A1D10" stroke-width="3" filter="url(#liquid-glow)" />
</svg>
