<svg xmlns="http://www.w3.org/2000/svg" viewBox="0 0 100 130" width="100%" height="100%">
  <defs>
    <filter id="shadow-filter" x="-10%" y="-10%" width="120%" height="120%">
      <feDropShadow dx="2.5" dy="2.5" stdDeviation="0" flood-color="#1A1D10" />
    </filter>
  </defs>
  <!-- Melting face body -->
  <path 
    d="M 15,35 
       C 15,15 85,15 85,35 
       C 85,50 88,60 88,70 
       C 88,80 80,90 76,90 
       C 72,90 70,80 70,72 
       C 70,64 62,64 58,64 
       C 54,64 50,88 47,112 
       C 45,122 37,122 35,112 
       C 33,102 33,72 30,72 
       C 27,72 24,82 20,82 
       C 16,82 12,70 12,50 
       C 12,42 13,38 15,35 
       Z" 
    fill="#FFB600" 
    stroke="#1A1D10" 
    stroke-width="3.5" 
    stroke-linejoin="round"
    filter="url(#shadow-filter)"
  />
  <!-- Melting eyes (long drops) -->
  <path d="M 32,32 C 32,24 40,24 40,32 C 40,42 34,48 34,54 C 34,58 32,58 32,54 Z" fill="#1A1D10" />
  <path d="M 60,32 C 60,24 68,24 68,32 C 68,42 62,48 62,54 C 62,58 60,58 60,54 Z" fill="#1A1D10" />
  <!-- Drip mouth/smile -->
  <path 
    d="M 28,52 
       Q 36,66 48,66 
       Q 50,75 48,85 
       C 47,90 44,90 44,85
       C 44,80 47,75 48,70
       Q 60,66 72,52" 
    fill="none" 
    stroke="#1A1D10" 
    stroke-width="3.5" 
    stroke-linecap="round"
  />
</svg>
