<?xml version="1.0" encoding="utf-8"?>
<!-- Generator: Adobe Illustrator 22.0.0, SVG Export Plug-In . SVG Version: 6.00 Build 0)  -->
<svg version="1.1" id="Capa_1" xmlns="http://www.w3.org/2000/svg" xmlns:xlink="http://www.w3.org/1999/xlink" x="0px" y="0px"
	 viewBox="0 0 1080 1080" style="enable-background:new 0 0 1080 1080;" xml:space="preserve">
<style type="text/css">
	.st0{fill:#FFFFFF;}
</style>
<g>
	<g>
		<path d="M760.9,637.1v97.7c0,65.1-36.2,101.3-101.3,101.3H416.4c-65.1,0-101.3-36.2-101.3-101.3V474.3
			c0-65.1,36.2-101.3,101.3-101.3h243.2c65.1,0,101.3,36.2,101.3,101.3v99.2c0,4.3-2.9,7.2-7.2,7.2H550.3c-4.3,0-7.2-2.9-7.2-7.2
			v-73.1h-29v208.4h29v-71.7c0-4.3,2.9-7.2,7.2-7.2h203.4C758,629.9,760.9,632.8,760.9,637.1z"/>
	</g>
	<g>
		<path class="st0" d="M611.7,790.2H459.2c-30.9,0-56-25.1-56-56V476c0-30.9,25.1-56,56-56h152.5c30.9,0,56,25.1,56,56v64.7
			c0,9.6-7.8,17.4-17.4,17.4c-9.6,0-17.4-7.8-17.4-17.4V476c0-11.7-9.5-21.2-21.2-21.2H459.2c-11.7,0-21.2,9.5-21.2,21.2v258.1
			c0,11.7,9.5,21.2,21.2,21.2h152.5c11.7,0,21.2-9.5,21.2-21.2v-57.4c0-9.6,7.8-17.4,17.4-17.4c9.6,0,17.4,7.8,17.4,17.4v57.4
			C667.7,765,642.6,790.2,611.7,790.2z"/>
	</g>
	<g>
		<g>
			<path d="M748.6,325.5c-7.2,0-13-5.8-13-13v-23.2c0-7.2,5.8-13,13-13c7.2,0,13,5.8,13,13v23.2
				C761.6,319.6,755.8,325.5,748.6,325.5z"/>
		</g>
		<g>
			<path d="M396,325.5c-7.2,0-13-5.8-13-13v-57.9c0-7.2,5.8-13,13-13c7.2,0,13,5.8,13,13v57.9C409,319.6,403.2,325.5,396,325.5z"/>
		</g>
		<g>
			<path d="M327.4,325.5c-7.2,0-13-5.8-13-13v-23.2c0-7.2,5.8-13,13-13c7.2,0,13,5.8,13,13v23.2
				C340.4,319.6,334.6,325.5,327.4,325.5z"/>
		</g>
		<g>
			<path d="M676,325.5c-7.2,0-13-5.8-13-13v-57.9c0-7.2,5.8-13,13-13s13,5.8,13,13v57.9C689,319.6,683.2,325.5,676,325.5z"/>
		</g>
		<g>
			<path d="M607.4,325.5c-7.2,0-13-5.8-13-13v-23.2c0-7.2,5.8-13,13-13s13,5.8,13,13v23.2C620.4,319.6,614.6,325.5,607.4,325.5z"/>
		</g>
		<g>
			<path d="M465.1,325.5c-7.2,0-13-5.8-13-13v-23.2c0-7.2,5.8-13,13-13s13,5.8,13,13v23.2C478.2,319.6,472.3,325.5,465.1,325.5z"/>
		</g>
		<g>
			<path d="M537.3,325.5c-7.2,0-13-5.8-13-13v-95.6c0-7.2,5.8-13,13-13s13,5.8,13,13v95.6C550.3,319.6,544.5,325.5,537.3,325.5z"/>
		</g>
	</g>
</g>
</svg>
